<svg width="385" height="402" viewBox="0 0 385 402" fill="none" xmlns="http://www.w3.org/2000/svg">
<path d="M52.3796 365.616C25.1111 350.319 24.375 316.593 27.6991 288.403C31.4352 256.903 23.4537 240.407 8.70834 213.366C-3.25925 191.421 -2.32869 171.431 9.99075 148.824C24.9445 121.509 50.2639 127.843 67.0232 105.838C82.6065 85.4213 76.7176 53.8333 91.1991 32.0926C105.769 10.2731 130.097 4.91203 155.046 6.7824C189.042 9.37037 220.435 27.7731 255.12 22.4444C283.065 18.1528 312.366 -10.1667 341.333 5.09259C395.519 33.6528 347.301 117.139 354.167 160.907C361.662 208.259 411.944 281.037 364.431 325.167C343.449 344.708 311.153 333.009 286.157 332.759C251.38 332.417 240.56 344.042 217.287 367.741C194.926 390.569 183.606 408.829 150.94 398.741C131.361 392.718 127.694 365.722 114.81 360.361C98.7176 353.866 67.8426 374.366 52.3796 365.616Z" fill="#ad0d06"/>
</svg>
